<?xml version="1.0" encoding="iso-8859-1"?>
<!-- Generator: Adobe Illustrator 19.0.0, SVG Export Plug-In . SVG Version: 6.00 Build 0)  -->
<svg version="1.1" id="Layer_1" xmlns="http://www.w3.org/2000/svg" xmlns:xlink="http://www.w3.org/1999/xlink" x="0px" y="0px"
	 viewBox="0 0 512.002 512.002" style="enable-background:new 0 0 512.002 512.002;" xml:space="preserve">
<path style="fill:#261D16;" d="M256.002,199.373c-107.14-79.09-111.422,95.877-247.742,74.13
	c25.233,60.553,143.509,105.88,247.742-22.547c104.233,128.427,222.509,83.099,247.742,22.547
	C367.425,295.25,363.142,120.282,256.002,199.373z"/>
<path d="M510.232,268.392c-1.853-2.352-4.834-3.525-7.789-3.046c-61.19,9.761-92.995-21.822-123.753-52.366
	c-17.1-16.982-33.251-33.02-53.215-39.525c-21.494-7.005-43.69-1.996-69.473,15.772c-25.785-17.768-47.978-22.775-69.473-15.772
	c-19.964,6.505-36.114,22.545-53.215,39.525c-30.757,30.544-62.562,62.126-123.753,52.366c-2.957-0.477-5.937,0.694-7.789,3.046
	c-1.852,2.353-2.287,5.523-1.135,8.286c13.596,32.628,49.03,57.56,90.271,63.519c33.456,4.839,98.519,0.968,165.094-76.364
	c55.256,64.184,109.462,77.758,145.43,77.757c7.367-0.001,13.976-0.571,19.664-1.393c41.241-5.958,76.674-30.891,90.271-63.519
	C512.519,273.915,512.084,270.745,510.232,268.392z M418.735,323.85c-31.066,4.491-92.683,0.309-156.321-78.099
	c-1.568-1.932-3.923-3.053-6.412-3.053c-2.488,0-4.844,1.122-6.412,3.053C185.953,324.16,124.335,328.336,93.27,323.85
	c-29.683-4.289-55.732-19.604-70.185-40.439c2.708,0.152,5.359,0.225,7.964,0.225c54.547-0.004,87.106-32.325,113.903-58.936
	c15.667-15.557,30.463-30.253,46.693-35.541c10.905-3.553,28.932-5.672,59.453,16.859c2.915,2.153,6.894,2.153,9.808,0
	c30.52-22.529,48.546-20.408,59.453-16.859c16.229,5.288,31.026,19.983,46.693,35.541c28.077,27.883,62.474,62.033,121.867,58.712
	C474.467,304.246,448.417,319.563,418.735,323.85z"/>
<g>
</g>
<g>
</g>
<g>
</g>
<g>
</g>
<g>
</g>
<g>
</g>
<g>
</g>
<g>
</g>
<g>
</g>
<g>
</g>
<g>
</g>
<g>
</g>
<g>
</g>
<g>
</g>
<g>
</g>
</svg>
