<?xml version="1.0" encoding="iso-8859-1"?>
<!-- Generator: Adobe Illustrator 19.0.0, SVG Export Plug-In . SVG Version: 6.00 Build 0)  -->
<svg version="1.1" id="Layer_1" xmlns="http://www.w3.org/2000/svg" xmlns:xlink="http://www.w3.org/1999/xlink" x="0px" y="0px"
	 viewBox="0 0 512 512" style="enable-background:new 0 0 512 512;" xml:space="preserve">
<g>
	<path style="fill:#9AD14B;" d="M376.568,26.781l-12.806,39.733c-13.585,5.125-4.188,32.673-16.458,40.086
		c-2.69-13.086-26.44,23.944-35.302,14.608c-19.392,27.365-23.908-34.864-24.346-35.302c-9.252-9.239-2.97-51.93-16.178-54.888
		l27.182-29.8l17.042,15.947L337.614,0l9.738,29.215L376.568,26.781z"/>
	<path style="fill:#9AD14B;" d="M213.339,1.217l27.195,29.8c-13.841,3.092,16.373,48.607,6.951,58.54
		c-8.874,9.337-75.23,22.216-77.908,35.302c-12.27-7.413-7.742-53.221-21.327-58.346l-12.818-39.733l29.215,2.435L174.386,0
		l21.912,17.164L213.339,1.217z"/>
</g>
<path style="fill:#E09B2D;" d="M363.762,512H148.25c43.373-16.397,80.72-45.089,107.756-81.84
	C283.043,466.911,320.39,495.603,363.762,512z"/>
<path style="fill:#71A517;" d="M307.048,51.237c8.862,9.337,15.192,21.072,17.882,34.158c-5.697,3.445-11.248,7.133-16.628,11.029
	c-0.414-0.463-0.84-0.913-1.254-1.363c-0.426-0.45-0.852-0.889-1.29-1.315c-5.833-5.833-27.258,105.662-47.317,105.37
	c-23.727-0.346-46.53-111.378-53.476-104.056c-0.426,0.45-0.852,0.901-1.254,1.363c-5.381-3.895-10.931-7.584-16.628-11.029
	c2.678-13.086,9.008-24.821,17.882-34.158c9.422-9.933,21.729-17.128,35.57-20.219c4.979-1.132,10.152-1.716,15.472-1.716
	s10.493,0.596,15.472,1.716c13.208,2.958,25.028,9.653,34.279,18.893C306.196,50.348,306.622,50.786,307.048,51.237z"/>
<path style="fill:#F95428;" d="M308.302,96.423c-20,14.498-37.664,152.188-52.296,172.079
	c-14.632-19.891-32.295-157.581-52.296-172.079c0.402-0.463,0.828-0.913,1.254-1.363c12.818-13.512,30.944-21.924,51.042-21.924
	c19.416,0,37.018,7.876,49.751,20.609c0.438,0.426,0.864,0.864,1.29,1.315C307.462,95.51,307.888,95.96,308.302,96.423z"/>
<g>
	<path style="fill:#F7B239;" d="M324.93,85.394c12.27-7.413,25.247-13.756,38.832-18.88V512
		c-43.373-16.397-80.72-45.089-107.756-81.84c29.021-39.441,46.172-88.182,46.172-140.903s-17.152-101.45-46.172-140.903
		c14.632-19.891,32.295-37.432,52.296-51.93C313.682,92.528,319.233,88.839,324.93,85.394z"/>
	<path style="fill:#F7B239;" d="M203.711,96.423c20,14.498,37.664,32.04,52.296,51.93c29.021,39.453,46.172,88.182,46.172,140.903
		S285.027,390.72,256.006,430.16C228.97,466.911,191.623,495.603,148.25,512V66.514c13.585,5.125,26.562,11.467,38.832,18.88
		C192.779,88.839,198.33,92.528,203.711,96.423z"/>
</g>
<g>
	<path style="fill:#E09B2D;" d="M271.831,148.353c-2.545-3.46-5.188-6.844-7.913-10.157c-2.724,3.314-5.367,6.698-7.913,10.157
		c29.021,39.453,46.172,88.182,46.172,140.903S285.027,390.72,256.006,430.16c2.547,3.462,5.186,6.852,7.913,10.168
		c2.727-3.316,5.366-6.706,7.913-10.168c29.021-39.441,46.172-88.182,46.172-140.903S300.852,187.806,271.831,148.353z"/>
	<path style="fill:#E09B2D;" d="M198.16,92.534c-3.626-2.476-7.316-4.866-11.078-7.14c-12.27-7.413-25.247-13.756-38.832-18.88V512
		c17.743-6.707,34.477-15.476,49.91-26.009V92.534z"/>
	<circle style="fill:#E09B2D;" cx="324.108" cy="153.685" r="9.13"/>
	<circle style="fill:#E09B2D;" cx="199.2" cy="175.171" r="9.13"/>
	<circle style="fill:#E09B2D;" cx="236.45" cy="243.742" r="9.13"/>
	<circle style="fill:#E09B2D;" cx="237.643" cy="335.137" r="9.13"/>
	<circle style="fill:#E09B2D;" cx="198.957" cy="403.94" r="9.13"/>
	<circle style="fill:#E09B2D;" cx="323.719" cy="424.597" r="9.13"/>
</g>
<g>
</g>
<g>
</g>
<g>
</g>
<g>
</g>
<g>
</g>
<g>
</g>
<g>
</g>
<g>
</g>
<g>
</g>
<g>
</g>
<g>
</g>
<g>
</g>
<g>
</g>
<g>
</g>
<g>
</g>
</svg>
